<svg xmlns="http://www.w3.org/2000/svg" viewBox="0 0 366.17 246.69"><style>path, polygon { fill: #fff; }</style><g id="Layer_2" data-name="Layer 2"><g id="Layer_1-2" data-name="Layer 1"><path d="M355.57,95.18l10.6.93c-.25,0-6.6-1.24-17.51-3v-19l-18.08-7.67v-1h0V58.1H310.9l-22.81-9.68V38.1H263.77l-4.19-1.78V33.93h0V26.55h-23L226.09,22.1V11.6H201.33L186.95,5.49,183,0l-4,5.5-14.36,6.1H139.84V22.14l-10.41,4.42H106.59v7.37h0v2.32l-4.35,1.85H77.84V48.45L55.12,58.1H35.59v8.29L18,73.87l-.62.26v19C6.54,94.88.24,96.06,0,96.1l11.6-.93v67L.18,165.09c.25,0,6.51-1.17,17.16-2.82v9.9l165.47,74.35.4.18,165.45-74.53v-9.92c10.75,1.67,17.08,2.8,17.33,2.85l-10.42-2.9Zm-25-26.55,12.94,5.49v18.2c-3.89-.6-8.22-1.24-12.94-1.91Zm-1-3.16V66l-1.31-.56Zm-41.5-14.88,17.68,7.51H288.09Zm0,14.88h35.05l6.44,2.74V90.27c-11.75-1.66-25.83-3.47-41.5-5.14Zm-1-26.37V48l-21-8.89Zm-27.5,0H261l26.06,11.07V58.1h-27.5Zm27.5,26.38V85l-.29,0,.19-.72c-36.47-12.4-65.11-38-77.38-50.35h15.48V39.1h33.5v20h0v6.38ZM184.95,79.1c4-7,15.8-11,25-13L196.81,79.22Q190.9,79.12,184.95,79.1ZM216.5,60.95l4.65,4.65L207.27,79.47q-4.52-.13-9.07-.22Zm.92,9.79,3.73,3.73-5.29,5.29-7.21-.25Zm4.84,4c10.14,2.66,28,5.78,42.35,8.08-15-1.3-31-2.38-47.38-3Zm-2-2.62L218.12,70l4.44-4.44-2.43-2.43a315.67,315.67,0,0,0,46.9,18C251.53,78.62,230.86,75,220.24,72.16ZM217.7,59.74l4.83-4.83-1-1.37-.18-.25-6-8.27-.65-.91-5.67-7.87c11.12,11,33.83,31.13,63,44.29A313.25,313.25,0,0,1,217.7,59.74Zm-29.54-1.93a3.22,3.22,0,0,1,.49-1.76,4.64,4.64,0,0,1,3-2.23,7.12,7.12,0,0,1,4.63.42,5,5,0,0,1,2.88,4,41.26,41.26,0,0,0-9.87,5,6.51,6.51,0,0,1-1.12-3.83,5.12,5.12,0,0,1,2.58.86C191,59.11,190,58.2,188.16,57.81Zm8.73-12.95A10.08,10.08,0,0,0,190.83,47a12.92,12.92,0,0,0-4.49,7.39c-.09.48-.17,1-.24,1.45a15.47,15.47,0,0,0-1.36,1.69.83.83,0,0,1-.07-.2c0-.15,0-.3,0-.45a22.5,22.5,0,0,1,2.14-8.33c.63-1.4,1.31-2.77,2-4.14,4.91-3.95,12.47-6.52,19.11-8.13l5.76,8A98.9,98.9,0,0,0,202.36,47,6.31,6.31,0,0,0,196.89,44.87Zm4.74-17.28,5.64,7.83c-1.67.41-3.38.88-5.09,1.42a46.56,46.56,0,0,0-12.43,5.69l.15-.3a9.06,9.06,0,0,0,.94-6,17.76,17.76,0,0,0-1-3A44.14,44.14,0,0,1,201.63,27.59Zm-12.21,4.67q-.34-.73-.7-1.46c-.77-1.53-1.52-3.07-2.28-4.6A27.13,27.13,0,0,1,196,19.73l5,7A44.08,44.08,0,0,0,189.42,32.26Zm-3.45-7-2.29-4.63c.5-3.65,3-6.63,6.44-9l5.26,7.3A28.39,28.39,0,0,0,186,25.26Zm1.73,39.21a19,19,0,0,0-1.85,1.8,6.72,6.72,0,0,0-.36-1.43,15.79,15.79,0,0,1-.71-2.9,19.35,19.35,0,0,1-.13-2.32l0-.08h1.37c.26,1.09.46,2.17.81,3.2A7.87,7.87,0,0,0,187.7,64.47ZM203,47.9a100.68,100.68,0,0,1,11.32-2.7l5.91,8.21a108.1,108.1,0,0,0-17.81,3.72,10.76,10.76,0,0,0,1.65-5.39A6.94,6.94,0,0,0,203,47.9Zm55.59-14v2l-4.63-2Zm-32.5-9.67,5.4,2.29h-5.4Zm0,9.67h22.77l9.73,4.13v0h-32.5Zm-1-21.33v9.08l-21.4-9.08Zm0,11.24v2.72h-23l-.12-.16-5.09-7.07-.61-.84-4.24-5.89h6.55ZM196.26,11.6h-4.92l-.41-.57-.58-.8-1.18-1.64Zm-12.7-9.1,6,8.29a17,17,0,0,0-6,6.7Zm0,71.77c0-.22,0-.43,0-.65.64-1.62,1.27-3.25,1.92-4.87a4.88,4.88,0,0,0,.26-.88,16.39,16.39,0,0,1,2.48-2.61,6.5,6.5,0,0,0,1.25,1.15s.19-1.66.26-2.35a40.33,40.33,0,0,1,9.52-4.8c0,.35.06.71.09,1.15A20.59,20.59,0,0,0,201,59c.15-.16.28-.32.41-.49a106.24,106.24,0,0,1,19.5-4.19l.33.46-10,10c-2.82.58-6,1.34-9.08,2.32-9.66,3-15.86,7.12-18.35,12h-.27V74.27Zm-7.69-62.68c3.49,2.36,6,5.27,6.57,8.86l-2.36,4.78A28.68,28.68,0,0,0,170.57,19Zm6.68,67.51h-.26c-2.52-4.87-8.81-8.92-18.59-11.88-3-.91-6-1.61-8.71-2.16L144.76,54.8l.14-.2A107.53,107.53,0,0,1,165,58.82l.12.14a20.62,20.62,0,0,0,1.58,1.4c0-.35,0-.64.07-.93a40.29,40.29,0,0,1,9.56,4.73c.08.76.24,2.21.24,2.19a6.5,6.5,0,0,0,1.19-1.07,16.49,16.49,0,0,1,2.42,2.47,4,4,0,0,0,.15.55q1.09,2.85,2.2,5.7s0,0,0,.06Zm-7.2-39c.33.87.7,1.72,1.08,2.57A46.78,46.78,0,0,0,163.72,37c-1.72-.52-3.45-1-5.12-1.37l5.68-7.88a44.69,44.69,0,0,1,12,5.51c-.21.49-.42,1-.61,1.49A7.52,7.52,0,0,0,175.36,40.08ZM158,36.48c6.73,1.58,14.4,4.11,19.37,8,.15.31.29.62.44.92a33.21,33.21,0,0,1,3.38,9.37c.14.9.19,1.81.29,2.74h-.05a15.34,15.34,0,0,0-1.3-1.6c-.08-.53-.17-1.06-.27-1.59A12.93,12.93,0,0,0,175.3,47a10.08,10.08,0,0,0-6.06-2.17,6.31,6.31,0,0,0-5.64,2.38,100.59,100.59,0,0,0-11.44-2.66Zm23.42,23.81a13.27,13.27,0,0,1-1,5.08,4.23,4.23,0,0,0-.24.82,19.1,19.1,0,0,0-1.78-1.69,7.82,7.82,0,0,0,.89-1.8c.34-1,.54-2.07.8-3.14h1.3C181.37,59.84,181.37,60.07,181.37,60.29Zm-6-.12a5.12,5.12,0,0,1,2.58-.86,6.5,6.5,0,0,1-1.2,3.93,41.44,41.44,0,0,0-9.84-4.84,5,5,0,0,1,2.91-4.21,7.12,7.12,0,0,1,4.63-.42,4.64,4.64,0,0,1,3,2.23,3.22,3.22,0,0,1,.49,1.76C176.09,58.14,175.11,59,175.36,60.17ZM163,48.06a6.91,6.91,0,0,0-.94,3.63,10.79,10.79,0,0,0,1.85,5.71l-.19-.06a110,110,0,0,0-18.15-3.66l5.94-8.25A102.31,102.31,0,0,1,163,48.06Zm16.63-21.9c-.77,1.56-1.55,3.11-2.31,4.67-.24.48-.46,1-.68,1.46a44.59,44.59,0,0,0-11.74-5.46l5.07-7A27.44,27.44,0,0,1,179.63,26.16ZM151.07,44.33l-.66.91-6,8.31-.35.49-.63.87,4.84,4.84A313.22,313.22,0,0,1,93.92,80.52C123,67.39,145.71,47.33,156.85,36.3Zm-5.35,18.92-2.35,2.35L147.8,70l-2.12,2.12c-10.5,2.87-31.21,6.48-46.75,9A315.89,315.89,0,0,0,145.72,63.24Zm-2,11.55,5,5c-16.4.67-32.36,1.75-47.35,3C115.68,80.56,133.53,77.45,143.69,74.79Zm6.39,5-5.29-5.29,3.73-3.73,8.77,8.77Q153.66,79.62,150.07,79.76Zm8.58-.29L144.78,65.6l4.68-4.68,3.8,3.8L154.53,66l13.25,13.25Q163.2,79.33,158.65,79.47Zm10.52-.25L156.32,66.36c9.23,2,20.91,5.84,24.86,12.74Q175.16,79.12,169.18,79.22Zm13.39-61.77a17,17,0,0,0-6.1-6.67l6.1-8.47ZM176.8,8.6l-1.17,1.62L175,11l-.4.56h-4.89Zm-36,4h21.48l-21.48,9.12Zm0,11.28L167.39,12.6h6.53l-4.29,6-.61.84-5.13,7.12,0,0h-23Zm-1,.42v2.26h-5.32Zm-32.25,9.63h4.47l-4.47,1.9Zm0,4.06,9.57-4.06h22.68V38.1H107.59ZM78.84,39.1h21L78.84,48Zm0,11.1L105,39.1h1.6v19H78.84Zm0,15.27h28.76V58.1h0v-19h33.25V33.93H156.4C144.13,46.24,115.5,71.87,79,84.27l.2.72-.37,0Zm-1-14.85V58.1H60.24ZM36.59,65.47h1.15L36.59,66Zm0,2.67,6.28-2.67h35V85.14c-15.57,1.67-29.56,3.47-41.25,5.12ZM19.34,75.46l16.25-6.9V90.41c-6.1.87-11.56,1.69-16.25,2.43Zm148.43,159.9h-4.9L19.34,170.86V162l8-1.2,0,0Zm179-73.42.12,0Zm-3.24,10.33-140,63.09H198l140.86-74.61,4.7.7ZM178.38,235.37l-8.8-13.68a45.76,45.76,0,0,0,5.92,1.27c1.22.17,2.48.31,3.73.41s2.56.15,3.7.2v11.81Zm5.54,0V223.52c1.11,0,2.33-.11,3.55-.22,1.58-.14,3-.34,4.42-.58a48.59,48.59,0,0,0,5.62-1.37l-9,14Zm5.74,0L199,220.88q1.18-.4,2.39-.86a32.5,32.5,0,0,0,12.31-8.15,25.25,25.25,0,0,0,5.22-8.21,19.38,19.38,0,0,0,1.34-8.64,20.23,20.23,0,0,0-.67-3.79,22.36,22.36,0,0,0-.92-2.65,379.71,379.71,0,0,1,44.84-18.25l-71.21,65Zm29.6-40.25a18.42,18.42,0,0,1-1.28,8.2,24.24,24.24,0,0,1-5,7.88,31.51,31.51,0,0,1-11.93,7.9l-1.15.41c-.51.18-1,.37-1.53.53a48.46,48.46,0,0,1-6.63,1.69c-1.37.24-2.79.43-4.34.57-1.19.11-2.38.17-3.46.22v-.75h-1v.79c-1.13,0-2.4-.09-3.62-.19s-2.46-.24-3.66-.41a44.9,44.9,0,0,1-6.69-1.49l-.19-.06-1.49-.47a39.36,39.36,0,0,1-5-1.94,30.72,30.72,0,0,1-9.74-7.2,24,24,0,0,1-4.89-8.14,19.81,19.81,0,0,1-1-4.89,18.11,18.11,0,0,1,1-7.3c.18-.53.39-1.06.61-1.58s.54-1.21.86-1.81a23.76,23.76,0,0,1,1.25-2.09c.37-.55.77-1.09,1.19-1.62s.66-.82,1-1.22a30.93,30.93,0,0,1,10.68-7.66,50.46,50.46,0,0,1,9.15-3,44.66,44.66,0,0,1,5.66-.89c1.35-.13,2.73-.22,4.22-.27H183c1.15,0,2.31.08,3.5.16a49.32,49.32,0,0,1,12,2.39,38.69,38.69,0,0,1,7.11,3,29.52,29.52,0,0,1,8.91,7.57l0,0c.42.54.8,1.09,1.16,1.64s.85,1.35,1.21,2,.59,1.2.84,1.81a21.42,21.42,0,0,1,.87,2.47A19.31,19.31,0,0,1,219.26,195.11Zm-72.61-5a19.1,19.1,0,0,0-1,7.7,20.78,20.78,0,0,0,1.09,5.14,25,25,0,0,0,5.09,8.48,32.15,32.15,0,0,0,10,7.44,44.42,44.42,0,0,0,6.24,2.35l9.08,14.12h-2.83l-70.5-64.55a379.71,379.71,0,0,1,43.44,17.62C147.07,189,146.84,189.56,146.65,190.14Zm49.18,45.23h-.77l117-78.25c9.32,1.17,17.76,2.33,25,3.39Zm-.59-1.34,70.6-64.46a449.25,449.25,0,0,1,43.79-12Zm22.58-47.24a24.83,24.83,0,0,0-1.26-2.15,342.81,342.81,0,0,1,63.9-31.12c8.93.91,17.44,1.87,25.4,2.83C280.67,162.11,249.13,171.55,217.82,186.79ZM215.39,183l-.08-.11a30.91,30.91,0,0,0-9.2-7.82,39.65,39.65,0,0,0-7.3-3.12,50.41,50.41,0,0,0-12.33-2.44,42.4,42.4,0,0,0-4.29-.15c-1.5.05-2.9.14-4.28.28a45.73,45.73,0,0,0-5.78.92,51.38,51.38,0,0,0-9.33,3,31.9,31.9,0,0,0-11,7.91c-.39.44-.76.89-1.12,1.35A343.14,343.14,0,0,0,90,153.1c28.65-2.81,61.22-5,93.13-5s64.27,2.18,92.85,5A342.87,342.87,0,0,0,215.39,183Zm-65.92,1.44a24.75,24.75,0,0,0-1.31,2.19c-31.49-15.19-63.28-24.55-88.33-30.22,8-1,16.59-1.94,25.6-2.86A343.15,343.15,0,0,1,149.47,184.44ZM101.54,170l71.34,65.32h-.24L57,157.81A453.54,453.54,0,0,1,101.54,170Zm69.28,65.32h-.92L29,160.52c7.29-1.06,15.74-2.22,25.09-3.4ZM354.57,162C346.3,160.6,268,147.1,183.09,147.1S20.87,160.6,12.6,162V95c3.88-.69,29.3-5.37,66.8-9.3v0l.07.47c.14,0,4.25-.61,10.44-1.55,26.85-2.55,58.86-4.56,93.09-4.56,33.81,0,65.61,2,92.46,4.47,6.53,1,10.91,1.63,11.06,1.65l.07-.47,0-.08c17,1.77,31.67,3.69,43,5.33v.1h.71c5.16.75,9.59,1.45,13.23,2v.05h.39l4.52.75.23.09v0c3,.51,5,.87,5.91,1Z"/><path d="M43.87,101Q46,97,49,96.59a5.81,5.81,0,0,1,3.91.72,11,11,0,0,1,3.21,3.52L57,99.24a9,9,0,0,0-3.81-3.52,9.41,9.41,0,0,0-4.9-.52,12,12,0,0,0-8,5,28.45,28.45,0,0,0-5,10.55,53,53,0,0,0-1.57,13.12,48,48,0,0,0,1.57,12.65,21,21,0,0,0,5,9.28,9.08,9.08,0,0,0,8,2.94A11.64,11.64,0,0,0,53.26,147,12.34,12.34,0,0,0,57,142.64l-.95-1.42Q53,146.83,49,147.33q-2.94.37-5.08-3.14a26.29,26.29,0,0,1-3.14-9,68.61,68.61,0,0,1-1-12.14,73.73,73.73,0,0,1,1-12.28A31.69,31.69,0,0,1,43.87,101Z"/><path d="M89.23,100a15.9,15.9,0,0,0-4.5-5.92,8.23,8.23,0,0,0-6.07-1.88q-4.4.42-7.74,4.92A30.23,30.23,0,0,0,66,107.71,49.21,49.21,0,0,0,64.43,120a45.24,45.24,0,0,0,1.57,12,23.88,23.88,0,0,0,4.92,9.55q3.35,3.83,7.74,3.41a10,10,0,0,0,6.07-3,20.39,20.39,0,0,0,4.5-6.71,44.38,44.38,0,0,0,2.67-8.7,46.78,46.78,0,0,0,.95-9.31,44.33,44.33,0,0,0-.95-9.09A38.35,38.35,0,0,0,89.23,100Zm-10.57,43.6a3.68,3.68,0,0,1-2.95-1,8,8,0,0,1-2-3.44,43.79,43.79,0,0,1-1.27-4.69,38.46,38.46,0,0,1-.72-5.59q-.2-3.14-.27-5.19t-.08-4.33q0-2.27.08-4.34t.27-5.24a41.39,41.39,0,0,1,.72-5.72,50.47,50.47,0,0,1,1.27-4.93,10.25,10.25,0,0,1,2-3.83,4.49,4.49,0,0,1,2.95-1.6Q86,93,86,117.92T78.66,143.58Z"/><path d="M117.92,129.94a11,11,0,0,1-1.7,6.14,5.34,5.34,0,0,1-4.11,2.77,4.5,4.5,0,0,1-4.06-2.26,9.94,9.94,0,0,1-1.7-5.87V89.89l-6.11.41V130a16,16,0,0,0,2.73,9.58q2.73,3.78,6.68,3.52t6.68-4.45a17.52,17.52,0,0,0,2.78-9.92V89l-1.2.08Z"/><path d="M141.25,115.88a27.48,27.48,0,0,0-3-3.61q-1.65-1.69-3.28-3.31a37.63,37.63,0,0,1-3-3.28,14.75,14.75,0,0,1-2.18-3.83,12.59,12.59,0,0,1-.85-4.66,7.74,7.74,0,0,1,2-5.7,6.81,6.81,0,0,1,4.66-2.08A5.92,5.92,0,0,1,141.53,93l1.4-2.41a8.53,8.53,0,0,0-6.47-2.65q-4.61.21-7.87,4.76a18.8,18.8,0,0,0-3.26,11.23,16.46,16.46,0,0,0,1.5,7.09,21.23,21.23,0,0,0,3.63,5.49q2.13,2.29,4.26,4.47a20.66,20.66,0,0,1,3.63,5.16,14.4,14.4,0,0,1,1.5,6.58,9.17,9.17,0,0,1-1.3,5.31,4.53,4.53,0,0,1-3.71,2,7.69,7.69,0,0,1-4.06-1,8.29,8.29,0,0,1-3.26-3.2l-1,3.2a5.74,5.74,0,0,1,1.4.67q.9.55,1.05.61a11.31,11.31,0,0,0,5.41,1.08q4.16-.19,7-4.57a20.48,20.48,0,0,0,2-16.28A17.38,17.38,0,0,0,141.25,115.88Z"/><polygon points="151.11 140.52 157.18 140.36 157.18 87.41 151.11 87.58 151.11 140.52"/><polygon points="182.67 119.27 169.98 87.16 163 87.23 166.77 96.74 166.77 140.14 167.92 140.13 167.92 99.74 182.67 136.9 182.67 139.98 183.83 139.97 183.83 87.02 182.67 87.03 182.67 119.27"/><path d="M216.46,87.49l-10-.28v52.95l6.07.17V119.77l3.91.11q4.66.13,7.92-4.48A19.3,19.3,0,0,0,227.65,104a19.93,19.93,0,0,0-3.29-11.55Q221.07,87.62,216.46,87.49Zm3.86,21.07a31.59,31.59,0,0,1-.85,4.68,9.34,9.34,0,0,1-1.78,3.7,3.45,3.45,0,0,1-2.83,1.35l-2.31-.06V88.85l2.31.06a3.67,3.67,0,0,1,2.78,1.47,9.61,9.61,0,0,1,1.78,3.72,33.86,33.86,0,0,1,.88,4.65,42.49,42.49,0,0,1,.28,4.93A46.54,46.54,0,0,1,220.32,108.56Z"/><path d="M237.1,88.23l2.46,9.09-10.92,43.42,1.15.06,5.16-20.52,11,.57,5.71,21.08,6.52.34-14.53-53.7Zm-1.75,30.53,4.86-19.21,5.31,19.73Z"/><path d="M279.81,131.92a9.83,9.83,0,0,1-1.7,5.89A4.49,4.49,0,0,1,274,140a5.36,5.36,0,0,1-4.05-2.85,11.12,11.12,0,0,1-1.7-6.12V90.19l-6.1-.47v39.65a17.84,17.84,0,0,0,2.73,10q2.73,4.18,6.68,4.48t6.68-3.48a15.67,15.67,0,0,0,2.78-9.51V91.19l-1.2-.09Z"/><polygon points="293.26 92.28 287.22 91.67 287.22 144.62 304.64 146.38 304.64 144.69 293.26 143.54 293.26 92.28"/><path d="M309.56,94a1.82,1.82,0,0,0-1.72.87,4,4,0,0,0-.72,2.45,4.8,4.8,0,0,0,.72,2.62,2.39,2.39,0,0,0,1.72,1.26,1.36,1.36,0,0,0,.8-.13,11.94,11.94,0,0,1-.87,2.95,6.15,6.15,0,0,1-1.42,2.22l.55,1.38A7.42,7.42,0,0,0,311,104.1a14.24,14.24,0,0,0,1-5.24,7.74,7.74,0,0,0-.65-3.34A2.33,2.33,0,0,0,309.56,94Z"/><path d="M330.37,124.57a35.22,35.22,0,0,0-3-4.13q-1.64-2-3.26-3.87t-2.94-3.79a18.4,18.4,0,0,1-2.17-4.21,13.87,13.87,0,0,1-.85-4.81q0-3.75,1.94-5.37a5.76,5.76,0,0,1,4.63-1.28,7.29,7.29,0,0,1,5.87,4.58L332,99.52a10.25,10.25,0,0,0-6.42-3.76,8.25,8.25,0,0,0-7.81,3.4q-3.24,4-3.23,10.67a18.34,18.34,0,0,0,1.49,7.35,26.84,26.84,0,0,0,3.61,6.12q2.12,2.66,4.23,5.21a26.14,26.14,0,0,1,3.61,5.79,16.15,16.15,0,0,1,1.49,6.84,8.15,8.15,0,0,1-1.29,5.08,3.75,3.75,0,0,1-3.68,1.32,8.86,8.86,0,0,1-4-1.73,10.66,10.66,0,0,1-3.24-3.76l-1,3a7.06,7.06,0,0,1,1.39.91q.9.7,1,.79a12.78,12.78,0,0,0,5.38,2q4.13.53,7-3.36a16.53,16.53,0,0,0,2.84-10,20.41,20.41,0,0,0-.85-5.95A21.28,21.28,0,0,0,330.37,124.57Z"/><polygon points="120.41 154.74 123.41 154.74 123.41 165.53 125.12 165.53 125.12 154.74 128.13 154.74 128.13 153.04 120.41 153.04 120.41 154.74"/><path d="M131.51,165.53h1.79l1.45-3.2h5.35l1.46,3.2h1.81l-6-13Zm3.88-4.62,2-4.46,2,4.46Z"/><polygon points="146.21 154.74 149.21 154.74 149.21 165.53 150.91 165.53 150.91 154.74 153.93 154.74 153.93 153.04 146.21 153.04 146.21 154.74"/><polygon points="158.14 154.74 161.14 154.74 161.14 165.53 162.84 165.53 162.84 154.74 165.85 154.74 165.85 153.04 158.14 153.04 158.14 154.74"/><path d="M176.91,152.64a7,7,0,0,0-5,1.93,6.13,6.13,0,0,0-2.06,4.63,6.4,6.4,0,0,0,2,4.77,7.18,7.18,0,0,0,9.87,0,6.41,6.41,0,0,0,2-4.79,6.17,6.17,0,0,0-2-4.62A6.8,6.8,0,0,0,176.91,152.64Zm3.59,10.08a4.86,4.86,0,0,1-3.52,1.45,5.31,5.31,0,0,1-3.75-1.42,4.54,4.54,0,0,1-1.53-3.46,4.64,4.64,0,0,1,1.49-3.46,5,5,0,0,1,3.58-1.44,5.2,5.2,0,0,1,3.7,1.42,4.75,4.75,0,0,1,0,6.91Z"/><path d="M195.53,165.95a6.83,6.83,0,0,0,4.95-2,6.41,6.41,0,0,0,2-4.79,6.17,6.17,0,0,0-2-4.62,6.8,6.8,0,0,0-4.86-1.95,7,7,0,0,0-5,1.93,6.13,6.13,0,0,0-2.06,4.63,6.4,6.4,0,0,0,2,4.77A6.81,6.81,0,0,0,195.53,165.95Zm-3.66-10.12a5,5,0,0,1,3.58-1.44,5.2,5.2,0,0,1,3.7,1.42,4.59,4.59,0,0,1,1.51,3.48,4.64,4.64,0,0,1-1.48,3.43,4.87,4.87,0,0,1-3.52,1.45,5.31,5.31,0,0,1-3.75-1.42,4.54,4.54,0,0,1-1.53-3.46A4.63,4.63,0,0,1,191.87,155.83Z"/><path d="M222.9,165.95a7.85,7.85,0,0,0,3.71-.9v-2a7.35,7.35,0,0,1-3.57,1,5.53,5.53,0,0,1-3.86-1.4,4.71,4.71,0,0,1,0-6.93,5.22,5.22,0,0,1,3.7-1.41,8.68,8.68,0,0,1,3.75,1v-1.93a10,10,0,0,0-3.83-.82,6.9,6.9,0,0,0-4.93,1.94,6.2,6.2,0,0,0-2,4.66,6.28,6.28,0,0,0,2.08,4.74A7,7,0,0,0,222.9,165.95Z"/><path d="M238.13,165.95a6.83,6.83,0,0,0,4.95-2,6.41,6.41,0,0,0,2-4.79,6.17,6.17,0,0,0-2-4.62,6.8,6.8,0,0,0-4.86-1.95,7,7,0,0,0-5,1.93,6.13,6.13,0,0,0-2.06,4.63,6.4,6.4,0,0,0,2,4.77A6.8,6.8,0,0,0,238.13,165.95Zm-3.66-10.12a5,5,0,0,1,3.58-1.44,5.2,5.2,0,0,1,3.7,1.42,4.75,4.75,0,0,1,0,6.91,4.86,4.86,0,0,1-3.52,1.45,5.31,5.31,0,0,1-3.75-1.42,4.54,4.54,0,0,1-1.53-3.46A4.64,4.64,0,0,1,234.47,155.83Z"/><path d="M214.79,190.52c-.15-.42-.32-.83-.51-1.24-.09-.2-.2-.39-.29-.59-.3-.61-.63-1.21-1-1.78s-.73-1.11-1.14-1.64a26.09,26.09,0,0,0-4.58-4.62l0-.06-.32-.24a31.07,31.07,0,0,0-5.25-3.13,47,47,0,0,0-6.17-2.24l-.68-.2-.45-.13h0l-.13,0-.49-.14h0a41.82,41.82,0,0,0-10.49-1.35,52.87,52.87,0,0,0-12.11,1.58c-1,.29-2,.61-3,.91a32.5,32.5,0,0,0-6.26,2.71,31.28,31.28,0,0,0-3.09,2l-.3.22,0,.06c-.35.29-.72.58-1.06.88a25.24,25.24,0,0,0-3.38,3.57q-.61.79-1.15,1.64c-.2.31-.41.62-.59.94s-.3.57-.44.85a19.65,19.65,0,0,0-.81,1.83,16.71,16.71,0,0,0-1.06,7.72,17.34,17.34,0,0,0,.78,3.7,20.31,20.31,0,0,0,4.23,7.2,29,29,0,0,0,8.28,6.38,37.67,37.67,0,0,0,5.64,2.28,41.69,41.69,0,0,0,13.88,2.29c1.23,0,2.46,0,3.69-.14a39.37,39.37,0,0,0,5.24-.77,53.32,53.32,0,0,0,7-2.08,28.89,28.89,0,0,0,12.31-8.43,19.62,19.62,0,0,0,4-7.41,17.69,17.69,0,0,0,.67-4.51,15,15,0,0,0-.16-2.3A17.62,17.62,0,0,0,214.79,190.52Zm-6.52,12.86a10.45,10.45,0,0,1-1.86,5.3,9.61,9.61,0,0,1-4.16,3.18,19.24,19.24,0,0,1-4.18,1.2,48.36,48.36,0,0,1-5.08.59,36.32,36.32,0,0,0-5.84.85,8.64,8.64,0,0,0-4.13,2.25l-.07.07a8.86,8.86,0,0,0-4.49-2.39,37.25,37.25,0,0,0-5-.73c-1.66-.12-3.43-.27-5.19-.57a18.83,18.83,0,0,1-5.14-1.52,9.08,9.08,0,0,1-5.21-6.63,15.59,15.59,0,0,1-.27-4.38,13.12,13.12,0,0,1,.78-3.82,12.52,12.52,0,0,1,1.09-2.15l.34-.54.38-.56.38-.58q.28-.43.55-.87l.17-.28a11.58,11.58,0,0,0,.72-1.53,13.42,13.42,0,0,0,.83-3.23,6.39,6.39,0,0,0-1.49-4.94,7.74,7.74,0,0,0-1.33-1.33c.75-.53,1.56-1,2.47-1.57a31.56,31.56,0,0,1,6.07-2.62c.77-.25,1.58-.51,2.42-.75a9,9,0,0,0-1.27,5.42c.21,4.37,2.59,6.2,2.59,6.2s2.18-1.87,2-6.45a8.45,8.45,0,0,0-2-5.51,53.84,53.84,0,0,1,9.69-1.31,11.75,11.75,0,0,0-4.13,9.23,12,12,0,0,0,5.09,10.1s5.06-2.83,5.06-10.16a11.23,11.23,0,0,0-4.05-9.18,40.59,40.59,0,0,1,9.68,1.33,8.45,8.45,0,0,0-2,5.51c-.22,4.58,2,6.45,2,6.45s2.38-1.83,2.59-6.2a9,9,0,0,0-1.26-5.4l.32.09a45.35,45.35,0,0,1,6,2.19,29.92,29.92,0,0,1,4.55,2.65,7.67,7.67,0,0,0-2.69,3.91,5.79,5.79,0,0,0-.13,2.36,12.34,12.34,0,0,0,.93,3.48c.06.14.11.27.17.41a14.75,14.75,0,0,0,.77,1.38l.39.62.13.2.23.34c.3.44.59.88.87,1.34l.06.1a11.74,11.74,0,0,1,1.61,4.84A17.81,17.81,0,0,1,208.27,203.37Z"/></g></g></svg>
