<?xml version="1.0" encoding="utf-8"?>
<!-- Generator: Adobe Illustrator 22.1.0, SVG Export Plug-In . SVG Version: 6.00 Build 0)  -->
<svg version="1.1" id="Layer_1" xmlns="http://www.w3.org/2000/svg" xmlns:xlink="http://www.w3.org/1999/xlink" x="0px" y="0px"
	 viewBox="0 0 370.2 248.4" style="enable-background:new 0 0 370.2 248.4;" xml:space="preserve">
<style type="text/css">
	.st0{fill:#FFFFFF;}
</style>
<g>
	<path class="st0" d="M357.2,96.2l10.6,0.9c-0.2,0-6.6-1.2-17.5-3v-19l-18.1-7.7v-1h0v-7.4h-19.7l-22.8-9.7V39.1h-24.3l-4.2-1.8
		v-2.4h0v-7.4h-23l-10.5-4.5V12.6H203l-14.4-6.1l-4-5.5l-4,5.5l-14.4,6.1h-24.8v10.5l-10.4,4.4h-22.8v7.4h0v2.3l-4.3,1.8H79.5v10.4
		l-22.7,9.6H37.2v8.3l-17.6,7.5L19,75.1v19C8.2,95.9,1.9,97.1,1.7,97.1l11.6-0.9v67l-11.4,2.9c0.2,0,6.5-1.2,17.2-2.8v9.9
		l165.5,74.3l0.4,0.2l165.5-74.5v-9.9c10.7,1.7,17.1,2.8,17.3,2.8l-10.4-2.9V96.2z M332.2,69.6l12.9,5.5v18.2
		c-3.9-0.6-8.2-1.2-12.9-1.9V69.6z M331.2,66.5V67l-1.3-0.6H331.2z M289.7,51.6l17.7,7.5h-17.7V51.6z M289.7,66.5h35.1l6.4,2.7v22.1
		c-11.7-1.7-25.8-3.5-41.5-5.1V66.5z M288.7,40.1V49l-21-8.9H288.7z M261.2,40.1h1.4l26.1,11.1v7.9h-27.5V40.1z M288.7,66.5V86
		c-0.1,0-0.2,0-0.3,0l0.2-0.7c-36.5-12.4-65.1-38-77.4-50.3h15.5v5.2h33.5v20h0v6.4H288.7z M218.2,62l4.6,4.6l-13.9,13.9
		c-3-0.1-6-0.2-9.1-0.2L218.2,62z M198.5,80.2c-3.9-0.1-7.9-0.1-11.9-0.1c4-7,15.8-11,25-13L198.5,80.2z M219.1,71.8l3.7,3.7
		l-5.3,5.3c-2.4-0.1-4.8-0.2-7.2-0.3L219.1,71.8z M223.9,75.8c10.1,2.7,28,5.8,42.3,8.1c-15-1.3-31-2.4-47.4-3L223.9,75.8z
		 M221.9,73.2l-2.1-2.1l4.4-4.4l-2.4-2.4c17.4,8.4,34.5,14.3,46.9,18C253.2,79.6,232.5,76,221.9,73.2z M219.4,60.8l4.8-4.8l-1-1.4
		l-0.2-0.3l-6-8.3l-0.7-0.9l-5.7-7.9c11.1,11,33.8,31.1,63,44.3C260.5,77.8,240,71.1,219.4,60.8z M189.8,58.8c0-0.6,0.2-1.2,0.5-1.8
		c0.7-1.2,1.7-1.9,3-2.2c1.6-0.4,3.2-0.2,4.6,0.4c1.8,0.8,2.6,2.2,2.9,4c-4,1.5-7.3,3.1-9.9,5c-0.7-1-1.2-2.7-1.1-3.8
		c1,0,1.8,0.4,2.6,0.9C192.7,60.1,191.7,59.2,189.8,58.8z M198.5,45.9c-2.2,0.2-4.3,0.7-6.1,2.2c-2.3,2-3.9,4.4-4.5,7.4
		c-0.1,0.5-0.2,1-0.2,1.4c-0.5,0.5-1,1.1-1.4,1.7c0-0.1-0.1-0.2-0.1-0.2c0-0.2,0-0.3,0-0.5c0.1-2.9,0.9-5.7,2.1-8.3
		c0.6-1.4,1.3-2.8,2-4.1c4.9-3.9,12.5-6.5,19.1-8.1l5.8,8C212,45.9,208,46.8,204,48C202.8,46.6,200.9,45.7,198.5,45.9z M192.5,37.2
		c-0.2-1-0.6-2-1-3c3.3-2.4,7.5-4.2,11.8-5.6l5.6,7.8c-1.7,0.4-3.4,0.9-5.1,1.4c-5.1,1.6-9.3,3.5-12.4,5.7c0-0.1,0.1-0.2,0.1-0.3
		C192.5,41.3,193,39.4,192.5,37.2z M191.1,33.3c-0.2-0.5-0.5-1-0.7-1.5c-0.8-1.5-1.5-3.1-2.3-4.6c2.3-2.6,5.7-4.8,9.5-6.5l5,7
		C197.9,29.3,194,31.2,191.1,33.3z M187.6,26.3c-0.8-1.5-1.5-3.1-2.3-4.6c0.5-3.7,3-6.6,6.4-9l5.3,7.3
		C192.9,21.8,189.8,23.9,187.6,26.3z M189.4,65.5c-0.7,0.6-1.3,1.2-1.8,1.8c-0.1-0.5-0.2-0.9-0.4-1.4c-0.3-0.9-0.6-1.9-0.7-2.9
		c-0.1-0.8-0.1-1.5-0.1-2.3c0,0,0-0.1,0-0.1h1.4c0.3,1.1,0.5,2.2,0.8,3.2C188.7,64.4,189,65,189.4,65.5z M204.7,48.9
		c4-1.2,8.1-2.1,11.3-2.7l5.9,8.2c-2.9,0.4-10.4,1.4-17.8,3.7c1-1.6,1.6-3.4,1.7-5.4C205.8,51.5,205.4,50.1,204.7,48.9z M260.2,34.9
		v2l-4.6-2H260.2z M227.7,25.3l5.4,2.3h-5.4V25.3z M227.7,34.9h22.8l9.7,4.1v0h-32.5V34.9z M226.7,13.6v9.1l-21.4-9.1H226.7z
		 M226.7,24.9v2.7h-23l-0.1-0.2l-5.1-7.1l-0.6-0.8l-4.2-5.9h6.6L226.7,24.9z M197.9,12.6H193l-0.4-0.6l-0.6-0.8l-1.2-1.6L197.9,12.6
		z M185.2,3.5l6,8.3c-2.9,2-4.9,4.3-6,6.7V3.5z M185.2,75.3L185.2,75.3c0-0.2,0-0.4,0.1-0.6c0.6-1.6,1.3-3.3,1.9-4.9
		c0.1-0.3,0.2-0.6,0.3-0.9c0.7-0.9,1.5-1.8,2.5-2.6c0.4,0.4,0.8,0.8,1.3,1.1c0,0,0.2-1.7,0.3-2.3c2.7-1.9,6-3.5,9.5-4.8
		c0,0.3,0.1,0.7,0.1,1.2c0.6-0.5,1.1-0.9,1.6-1.4c0.1-0.2,0.3-0.3,0.4-0.5c8.4-2.8,17-3.9,19.5-4.2l0.3,0.5l-10,10
		c-2.8,0.6-6,1.3-9.1,2.3c-9.7,3-15.9,7.1-18.3,12c-0.1,0-0.2,0-0.3,0V75.3z M184.2,3.3v15.1c-1.1-2.4-3.2-4.7-6.1-6.7L184.2,3.3z
		 M181.3,27.2c-0.8,1.6-1.5,3.1-2.3,4.7c-0.2,0.5-0.5,1-0.7,1.5c-3-2.1-6.9-3.9-11.7-5.5l5.1-7C175.5,22.5,179,24.6,181.3,27.2z
		 M172.2,20l5.3-7.4c3.5,2.4,6,5.3,6.6,8.9c-0.8,1.6-1.6,3.2-2.4,4.8C179.6,23.9,176.4,21.8,172.2,20z M177.9,34.2
		c-0.2,0.5-0.4,1-0.6,1.5c-0.6,1.7-0.9,3.6-0.3,5.4c0.3,0.9,0.7,1.7,1.1,2.6c-3.2-2.2-7.5-4.1-12.7-5.7c-1.7-0.5-3.4-1-5.1-1.4
		l5.7-7.9C170.3,30.1,174.6,31.9,177.9,34.2z M179,45.5c0.1,0.3,0.3,0.6,0.4,0.9c1.5,3,2.8,6,3.4,9.4c0.1,0.9,0.2,1.8,0.3,2.7H183
		c-0.4-0.5-0.8-1.1-1.3-1.6c-0.1-0.5-0.2-1.1-0.3-1.6c-0.6-3-2.2-5.4-4.5-7.4c-1.7-1.5-3.8-2-6.1-2.2c-2.5-0.2-4.4,0.9-5.6,2.4
		c-4-1.2-8.1-2.1-11.4-2.7l5.8-8C166.3,39.1,174,41.6,179,45.5z M183,61.3c0,1.8-0.3,3.4-1,5.1c-0.1,0.3-0.2,0.5-0.2,0.8
		c-0.5-0.6-1.1-1.1-1.8-1.7c0.4-0.6,0.7-1.2,0.9-1.8c0.3-1,0.5-2.1,0.8-3.1h1.3C183,60.9,183,61.1,183,61.3z M177,61.2
		c0.8-0.4,1.6-0.9,2.6-0.9c0.1,1.2-0.5,3-1.2,3.9c-2.6-1.8-5.9-3.4-9.8-4.8c0.3-1.8,1.1-3.4,2.9-4.2c1.5-0.7,3.1-0.8,4.6-0.4
		c1.3,0.3,2.3,1,3,2.2c0.3,0.5,0.5,1.1,0.5,1.8C177.7,59.2,176.8,60.1,177,61.2z M165.6,58.4c-0.1,0-0.1,0-0.2-0.1
		c-7.5-2.3-15.1-3.3-18.2-3.7l5.9-8.3c3.3,0.6,7.4,1.4,11.5,2.6c-0.7,1.1-1,2.4-0.9,3.6C163.8,54.8,164.4,56.7,165.6,58.4z
		 M152.7,45.3l-0.7,0.9l-6,8.3l-0.4,0.5l-0.6,0.9l4.8,4.8c-20.6,10.4-41.1,17.1-54.4,20.8c29.1-13.1,51.8-33.2,62.9-44.2L152.7,45.3
		z M147.4,64.3l-2.4,2.4l4.4,4.4l-2.1,2.1c-10.5,2.9-31.2,6.5-46.7,9C113,78.5,130,72.7,147.4,64.3z M145.3,75.8l5,5
		c-16.4,0.7-32.4,1.7-47.4,3C117.3,81.6,135.2,78.5,145.3,75.8z M146.4,75.5l3.7-3.7l8.8,8.8c-2.4,0.1-4.8,0.2-7.2,0.3L146.4,75.5z
		 M146.4,66.6l4.7-4.7l3.8,3.8l1.3,1.3l13.3,13.3c-3.1,0.1-6.1,0.1-9.1,0.2L146.4,66.6z M158,67.4c9.2,2,20.9,5.8,24.9,12.7
		c-4,0-8,0.1-12,0.1L158,67.4z M165.4,68.2c-3-0.9-6-1.6-8.7-2.2l-10.3-10.3l0.1-0.2c2.7,0.3,11.7,1.4,20.1,4.2c0,0,0.1,0.1,0.1,0.1
		c0.5,0.5,1,0.9,1.6,1.4c0-0.3,0-0.6,0.1-0.9c3.5,1.3,6.9,2.8,9.6,4.7c0.1,0.8,0.2,2.2,0.2,2.2c0.5-0.3,0.8-0.7,1.2-1.1
		c0.9,0.8,1.7,1.6,2.4,2.5c0,0.2,0.1,0.4,0.2,0.5c0.7,1.9,1.5,3.8,2.2,5.7c0,0,0,0,0,0.1v5.1c-0.1,0-0.2,0-0.3,0
		C181.4,75.2,175.2,71.2,165.4,68.2z M178.5,9.6l-1.2,1.6l-0.6,0.8l-0.4,0.6h-4.9L178.5,9.6z M142.5,13.6H164l-21.5,9.1V13.6z
		 M142.5,24.9L169,13.6h6.5l-4.3,6l-0.6,0.8l-5.1,7.1l0,0h-23V24.9z M141.5,25.3v2.3h-5.3L141.5,25.3z M109.2,34.9h4.5l-4.5,1.9
		V34.9z M109.2,39l9.6-4.1h22.7v4.2h-32.3V39z M80.5,40.1h21l-21,8.9V40.1z M80.5,51.2l26.1-11.1h1.6v19H80.5V51.2z M80.5,66.5h28.8
		v-7.4h0v-19h33.3v-5.2h15.6c-12.3,12.3-40.9,37.9-77.4,50.3l0.2,0.7c-0.1,0-0.2,0-0.4,0V66.5z M79.5,51.6v7.5H61.9L79.5,51.6z
		 M38.2,66.5h1.2L38.2,67V66.5z M38.2,69.2l6.3-2.7h35v19.7c-15.6,1.7-29.6,3.5-41.2,5.1V69.2z M21,76.5l16.2-6.9v21.8
		c-6.1,0.9-11.6,1.7-16.2,2.4V76.5z M164.5,236.4L21,171.9V163c2.5-0.4,5.2-0.8,8-1.2c0,0,0,0,0,0l140.4,74.6H164.5z M171.6,236.4
		L30.7,161.5c7.3-1.1,15.7-2.2,25.1-3.4l116.7,78.2H171.6z M174.3,236.4L58.6,158.8c13.2,2.9,28.4,6.9,44.6,12.2l71.3,65.3H174.3z
		 M191.3,236.4l9.9-15.3c-0.2-0.4,1.8-4.5,1.7-4.5l-12.8,19.8h-4.5V228c-0.3,0-0.6,0.1-0.9,0.1c0,0-0.1,0-0.1,0v8.3H180L168.3,218
		c-0.5-0.3,0.6,2.8,0.3,2.3c0,0,0,0,0,0l10.3,16.1H176l-70.5-64.5c10,3.4,20.4,7.3,30.8,11.8c-0.5-0.8-0.9-1.7-1.1-2.7
		c-26.5-11.3-52.5-18.8-73.7-23.6c8-1,16.6-1.9,25.6-2.9c16.8,6.1,32.7,13.3,47.6,21.4c0.3-0.6,0.8-1.2,1.5-1.5
		c-14-7.6-28.9-14.4-44.6-20.4c28.6-2.8,61.2-5,93.1-5c31.8,0,64.3,2.2,92.8,5c-15.3,5.8-29.9,12.5-43.6,20c0,0.1,0.1,0.2,0.1,0.3
		c0.7,0.1,1.2,0.5,1.5,1.1c14.6-7.9,30.1-15,46.5-21c8.9,0.9,17.4,1.9,25.4,2.8c-20.9,4.8-46.2,12.1-72.1,23.2
		c-0.1,0.4-0.3,0.7-0.6,1c-0.1,0.4-0.3,0.8-0.6,1.1c0,0.2,0,0.4,0,0.6c10.5-4.6,20.9-8.5,31-11.9l-71.2,65H191.3z M311.3,158.6
		L196.9,235l70.6-64.5C283.3,165.4,298.2,161.5,311.3,158.6z M196.7,236.4l117-78.2c9.3,1.2,17.8,2.3,25,3.4l-141.3,74.9H196.7z
		 M345.2,173.3l-140,63.1h-5.5l140.9-74.6c1.6,0.2,3.2,0.5,4.7,0.7V173.3z M356.2,163c-8.3-1.4-86.6-14.9-171.5-14.9
		S22.5,161.6,14.3,163V96c3.9-0.7,29.3-5.4,66.8-9.3l0,0l0.1,0.5c0.1,0,4.2-0.6,10.4-1.6c26.9-2.5,58.9-4.6,93.1-4.6
		c33.8,0,65.6,2,92.5,4.5c6.5,1,10.9,1.6,11.1,1.6l0.1-0.5l0-0.1c17,1.8,31.7,3.7,43,5.3v0.1h0.7c5.2,0.8,9.6,1.4,13.2,2v0.1
		c0.1,0,0.3,0,0.4,0c1.7,0.3,3.2,0.5,4.5,0.7c0.1,0,0.2,0.1,0.2,0.1v0c3,0.5,5,0.9,5.9,1V163z"/>
	<path class="st0" d="M348.4,163c0,0,0.1,0,0.1,0C348.5,163,348.5,163,348.4,163z"/>
	<path class="st0" d="M45.5,102c1.4-2.7,3.1-4.1,5.1-4.4c1.5-0.2,2.8,0,3.9,0.7s2.1,1.8,3.2,3.5l0.9-1.6c-1.2-1.8-2.4-2.9-3.8-3.5
		c-1.4-0.6-3-0.8-4.9-0.5c-3.1,0.4-5.8,2.1-8,5c-2.3,2.9-3.9,6.4-5,10.5c-1,4.1-1.6,8.5-1.6,13.1c0,4.6,0.5,8.8,1.6,12.7
		c1,3.8,2.7,6.9,5,9.3c2.3,2.4,5,3.3,8,2.9c1.9-0.2,3.6-0.8,4.9-1.7c1.4-0.9,2.6-2.4,3.8-4.4l-0.9-1.4c-2.1,3.7-4.5,5.8-7.1,6.1
		c-2,0.2-3.7-0.8-5.1-3.1c-1.4-2.3-2.5-5.4-3.1-9c-0.7-3.7-1-7.7-1-12.1c0-4.4,0.3-8.4,1-12.3C43,107.9,44.1,104.7,45.5,102z"/>
	<path class="st0" d="M90.9,101c-1.1-2.5-2.6-4.5-4.5-5.9c-1.8-1.5-3.9-2.1-6.1-1.9c-2.9,0.3-5.5,1.9-7.7,4.9
		c-2.2,3-3.9,6.5-4.9,10.6s-1.6,8.2-1.6,12.3c0,4.2,0.5,8.2,1.6,12c1,3.8,2.7,7,4.9,9.6c2.2,2.6,4.8,3.7,7.7,3.4
		c2.2-0.2,4.2-1.2,6.1-3c1.8-1.8,3.3-4,4.5-6.7c1.1-2.7,2-5.6,2.7-8.7c0.6-3.1,0.9-6.2,0.9-9.3c0-3-0.3-6.1-0.9-9.1
		C92.9,106.2,92,103.5,90.9,101z M80.3,144.6c-1.1,0.1-2.1-0.2-2.9-1s-1.5-1.9-2-3.4c-0.5-1.5-0.9-3.1-1.3-4.7s-0.6-3.5-0.7-5.6
		c-0.1-2.1-0.2-3.8-0.3-5.2c0-1.4-0.1-2.8-0.1-4.3c0-1.5,0-3,0.1-4.3c0-1.4,0.1-3.1,0.3-5.2c0.1-2.1,0.4-4,0.7-5.7
		c0.3-1.7,0.8-3.3,1.3-4.9c0.5-1.6,1.2-2.9,2-3.8c0.9-1,1.8-1.5,2.9-1.6c4.9-0.5,7.3,7.6,7.3,24.3C87.6,135.6,85.2,144.1,80.3,144.6
		z"/>
	<path class="st0" d="M119.6,131c0,2.4-0.6,4.4-1.7,6.1c-1.1,1.7-2.5,2.7-4.1,2.8c-1.6,0.1-2.9-0.6-4.1-2.3
		c-1.1-1.6-1.7-3.6-1.7-5.9V90.9l-6.1,0.4V131c0,3.9,0.9,7.1,2.7,9.6s4,3.7,6.7,3.5c2.6-0.2,4.8-1.7,6.7-4.5
		c1.9-2.8,2.8-6.1,2.8-9.9V90l-1.2,0.1V131z"/>
	<path class="st0" d="M142.9,116.9c-0.9-1.3-1.9-2.5-3-3.6s-2.2-2.2-3.3-3.3c-1.1-1.1-2.1-2.2-3-3.3c-0.9-1.1-1.6-2.4-2.2-3.8
		c-0.6-1.4-0.9-3-0.9-4.7c0-2.5,0.7-4.4,2-5.7c1.3-1.3,2.9-2,4.7-2.1c2.7-0.1,4.6,1.1,5.9,3.6l1.4-2.4c-1.9-1.9-4.1-2.8-6.5-2.6
		c-3.1,0.1-5.7,1.7-7.9,4.8s-3.3,6.8-3.3,11.2c0,2.6,0.5,5,1.5,7.1c1,2.1,2.2,4,3.6,5.5c1.4,1.5,2.8,3,4.3,4.5
		c1.4,1.5,2.6,3.2,3.6,5.2c1,2,1.5,4.2,1.5,6.6c0,2.3-0.4,4.1-1.3,5.3c-0.9,1.2-2.1,1.9-3.7,2c-1.3,0.1-2.7-0.3-4.1-1
		c-1.4-0.7-2.5-1.8-3.3-3.2l-1,3.2c0.3,0.1,0.8,0.3,1.4,0.7c0.6,0.4,1,0.6,1.1,0.6c1.7,0.8,3.5,1.2,5.4,1.1c2.8-0.1,5.1-1.6,7-4.6
		c1.9-2.9,2.9-6.4,2.9-10.5c0-2.1-0.3-4-0.9-5.8C144.5,119.7,143.8,118.2,142.9,116.9z"/>
	<polygon class="st0" points="152.8,141.5 158.8,141.4 158.8,88.4 152.8,88.6 	"/>
	<polygon class="st0" points="184.3,120.3 171.6,88.2 164.7,88.2 168.4,97.8 168.4,141.2 169.6,141.1 169.6,100.8 184.3,137.9 
		184.3,141 185.5,141 185.5,88 184.3,88 	"/>
	<path class="st0" d="M218.1,88.5l-10-0.3v52.9l6.1,0.2v-20.6l3.9,0.1c3.1,0.1,5.8-1.4,7.9-4.5c2.2-3.1,3.3-6.9,3.3-11.4
		c0-4.5-1.1-8.4-3.3-11.5C223.8,90.2,221.2,88.6,218.1,88.5z M222,109.6c-0.2,1.6-0.5,3.1-0.9,4.7c-0.4,1.5-1,2.8-1.8,3.7
		c-0.8,0.9-1.7,1.4-2.8,1.4l-2.3-0.1V89.9l2.3,0.1c1.1,0,2,0.5,2.8,1.5c0.8,1,1.4,2.2,1.8,3.7c0.4,1.5,0.7,3.1,0.9,4.7
		c0.2,1.6,0.3,3.2,0.3,4.9C222.2,106.4,222.1,108,222,109.6z"/>
	<path class="st0" d="M238.8,89.2l2.5,9.1l-10.9,43.4l1.2,0.1l5.2-20.5l11,0.6l5.7,21.1l6.5,0.3l-14.5-53.7L238.8,89.2z M237,119.8
		l4.9-19.2l5.3,19.7L237,119.8z"/>
	<path class="st0" d="M281.5,132.9c0,2.3-0.6,4.3-1.7,5.9c-1.1,1.6-2.5,2.3-4.1,2.2c-1.6-0.1-2.9-1.1-4.1-2.8
		c-1.1-1.8-1.7-3.8-1.7-6.1V91.2l-6.1-0.5v39.7c0,3.9,0.9,7.2,2.7,10c1.8,2.8,4,4.3,6.7,4.5c2.6,0.2,4.8-1,6.7-3.5
		c1.9-2.5,2.8-5.7,2.8-9.5V92.2l-1.2-0.1V132.9z"/>
	<polygon class="st0" points="294.9,93.3 288.9,92.7 288.9,145.6 306.3,147.4 306.3,145.7 294.9,144.6 	"/>
	<path class="st0" d="M311.2,95c-0.7-0.1-1.2,0.2-1.7,0.9c-0.5,0.7-0.7,1.5-0.7,2.5c0,1,0.2,1.9,0.7,2.6c0.5,0.8,1.1,1.2,1.7,1.3
		c0.3,0,0.6,0,0.8-0.1c-0.1,0.9-0.4,1.9-0.9,2.9c-0.4,1.1-0.9,1.8-1.4,2.2l0.5,1.4c0.9-0.6,1.7-1.8,2.4-3.5c0.7-1.7,1-3.5,1-5.2
		c0-1.3-0.2-2.4-0.6-3.3C312.6,95.6,312,95.1,311.2,95z"/>
	<path class="st0" d="M332,125.6c-0.9-1.4-1.9-2.8-3-4.1c-1.1-1.3-2.2-2.6-3.3-3.9c-1.1-1.3-2.1-2.5-2.9-3.8
		c-0.9-1.3-1.6-2.7-2.2-4.2s-0.8-3.1-0.8-4.8c0-2.5,0.6-4.3,1.9-5.4c1.3-1.1,2.8-1.5,4.6-1.3c2.7,0.3,4.6,1.9,5.9,4.6l1.4-2.2
		c-1.9-2.2-4.1-3.5-6.4-3.8c-3.1-0.4-5.7,0.7-7.8,3.4s-3.2,6.2-3.2,10.7c0,2.6,0.5,5,1.5,7.4c1,2.3,2.2,4.3,3.6,6.1s2.8,3.5,4.2,5.2
		c1.4,1.7,2.6,3.6,3.6,5.8c1,2.2,1.5,4.4,1.5,6.8c0,2.3-0.4,4-1.3,5.1c-0.9,1.1-2.1,1.5-3.7,1.3c-1.3-0.2-2.7-0.7-4-1.7
		c-1.4-1-2.4-2.2-3.2-3.8l-1,3c0.3,0.1,0.8,0.4,1.4,0.9c0.6,0.5,0.9,0.7,1,0.8c1.7,1.1,3.5,1.8,5.4,2c2.8,0.4,5.1-0.8,7-3.4
		c1.9-2.6,2.8-5.9,2.8-10c0-2.1-0.3-4.1-0.8-5.9C333.6,128.7,332.9,127,332,125.6z"/>
	<polygon class="st0" points="122.1,155.8 125.1,155.8 125.1,166.5 126.8,166.5 126.8,155.8 129.8,155.8 129.8,154.1 122.1,154.1 	
		"/>
	<path class="st0" d="M133.2,166.5h1.8l1.4-3.2h5.4l1.5,3.2h1.8l-6-13L133.2,166.5z M137,161.9l2-4.5l2,4.5H137z"/>
	<polygon class="st0" points="147.9,155.8 150.9,155.8 150.9,166.5 152.6,166.5 152.6,155.8 155.6,155.8 155.6,154.1 147.9,154.1 	
		"/>
	<polygon class="st0" points="159.8,155.8 162.8,155.8 162.8,166.5 164.5,166.5 164.5,155.8 167.5,155.8 167.5,154.1 159.8,154.1 	
		"/>
	<path class="st0" d="M178.6,153.7c-1.9,0-3.6,0.6-5,1.9c-1.4,1.3-2.1,2.8-2.1,4.6c0,1.9,0.7,3.5,2,4.8c1.4,1.3,3,2,4.9,2
		c2,0,3.6-0.7,4.9-2c1.3-1.3,2-2.9,2-4.8c0-1.8-0.7-3.3-2-4.6C182.1,154.3,180.4,153.7,178.6,153.7z M182.2,163.7
		c-1,1-2.2,1.4-3.5,1.4c-1.5,0-2.7-0.5-3.7-1.4c-1-0.9-1.5-2.1-1.5-3.5c0-1.3,0.5-2.5,1.5-3.5c1-1,2.2-1.4,3.6-1.4
		c1.5,0,2.7,0.5,3.7,1.4c1,0.9,1.5,2.1,1.5,3.5C183.6,161.6,183.1,162.8,182.2,163.7z"/>
	<path class="st0" d="M197.2,167c2,0,3.6-0.7,4.9-2c1.3-1.3,2-2.9,2-4.8c0-1.8-0.7-3.3-2-4.6c-1.4-1.3-3-1.9-4.9-1.9
		c-1.9,0-3.6,0.6-5,1.9c-1.4,1.3-2.1,2.8-2.1,4.6c0,1.9,0.7,3.5,2,4.8C193.6,166.3,195.3,167,197.2,167z M193.5,156.8
		c1-1,2.2-1.4,3.6-1.4c1.5,0,2.7,0.5,3.7,1.4c1,0.9,1.5,2.1,1.5,3.5c0,1.3-0.5,2.5-1.5,3.4c-1,1-2.2,1.4-3.5,1.4
		c-1.5,0-2.7-0.5-3.7-1.4c-1-0.9-1.5-2.1-1.5-3.5C192,159,192.5,157.8,193.5,156.8z"/>
	<path class="st0" d="M224.6,167c1.3,0,2.6-0.3,3.7-0.9v-2c-1.3,0.7-2.4,1-3.6,1c-1.5,0-2.8-0.5-3.9-1.4c-1-0.9-1.5-2.1-1.5-3.5
		c0-1.4,0.5-2.5,1.5-3.5c1-0.9,2.2-1.4,3.7-1.4c1.1,0,2.4,0.3,3.8,1v-1.9c-1.3-0.5-2.6-0.8-3.8-0.8c-1.9,0-3.6,0.6-4.9,1.9
		s-2,2.8-2,4.7c0,1.8,0.7,3.4,2.1,4.7C220.9,166.3,222.6,167,224.6,167z"/>
	<path class="st0" d="M239.8,167c2,0,3.6-0.7,4.9-2c1.3-1.3,2-2.9,2-4.8c0-1.8-0.7-3.3-2-4.6c-1.4-1.3-3-1.9-4.9-1.9
		c-1.9,0-3.6,0.6-5,1.9c-1.4,1.3-2.1,2.8-2.1,4.6c0,1.9,0.7,3.5,2,4.8C236.2,166.3,237.9,167,239.8,167z M236.1,156.8
		c1-1,2.2-1.4,3.6-1.4c1.5,0,2.7,0.5,3.7,1.4c1,0.9,1.5,2.1,1.5,3.5c0,1.3-0.5,2.5-1.5,3.4c-1,1-2.2,1.4-3.5,1.4
		c-1.5,0-2.7-0.5-3.7-1.4c-1-0.9-1.5-2.1-1.5-3.5C234.6,159,235.1,157.8,236.1,156.8z"/>
</g>
<path class="st0" d="M235.6,174.7c-0.6-0.7-1.7-1.1-3.1-1.1c-2.8,0-5.4,0.5-7.6,1.5c-2.6,1.2-5.3,2.5-7.9,3.9
	c-2.4,1.3-4.8,2.8-7.1,4.3l-0.9,0.6c-4,2.5-8.2,4.6-11.8,6.3c-0.2,0.1-0.4,0.2-0.7,0.3c0.4-0.9,0.6-1.8,0.3-2.9c0,0,0.1-0.1,0.1-0.1
	c0.4-0.3,0.8-0.6,1.2-0.9c0.5-0.4,1-0.7,1.5-1.1c1.3-1,1.9-2.1,2.1-3.5c0.1-0.8,0.5-1.4,1.3-1.8c1.5-0.7,2.6-1.9,3.1-3.3
	c0.1-0.4,0.4-0.6,0.8-0.8c0.5-0.2,1-0.5,1.3-0.9c0.5-0.6,1.1-1.3,1.4-2.1c0.4-0.8,1-1,1.9-1.1c0.1,0,0.1,0,0.2,0l0.4,0l0.1-0.7
	l-1.8-0.2l-0.7-1.8l-0.6,0.2l0.1,0.4c0,0.1,0,0.2,0.1,0.3c0.2,0.9,0.1,1.6-0.6,2c-0.8,0.5-1.5,1-2.1,1.5l-0.1,0
	c-0.3,0.2-0.7,0.5-0.8,0.9c-0.1,0.5-0.5,0.7-1.1,0.8c-0.2,0-0.3,0.1-0.5,0.1l-0.2,0.1c-1.3,0.5-2.7,1-3.2,2.6
	c-0.3,0.9-0.6,1.2-1.5,1.4c-1.5,0.4-2.4,1.6-3.2,2.7l0,0.1c-0.3,0.5-0.7,1-1.3,1.3l0-0.1c-0.1-0.2-0.3-0.5-0.4-0.7
	c-0.4-0.6-0.9-0.9-1.5-0.9c-0.5,0-0.7-0.1-0.8-0.6c-0.1-0.4-0.4-0.7-0.6-0.9c-0.3-0.2-0.6-0.5-0.9-0.7l0.7-0.3l-0.3-0.5
	c0.7,0,1.2-0.3,1.5-1c0,0,0.1-0.1,0.1-0.1c0.9,0.2,1.5-0.4,2-1c2.2-2.3,4.7-4.6,7.6-6.9c0.4-0.3,0.9-0.7,1.3-1.1
	c0.2-0.1,0.2-0.3,0.3-0.5c0-0.1,0-0.1,0.1-0.2l0.1-0.4l-0.6,0c-0.2,0-0.3,0-0.5,0c-0.1,0-0.3,0.1-0.3,0.1c0,0-0.1,0-0.1,0
	c-2.3,1.1-4.4,2.6-6.8,4.8c-0.7,0.6-1.4,1.3-2,2c-0.3,0.3-0.7,0.7-1,1c-0.3,0.3-0.6,0.5-1,0.5c-1.1-0.2-1.4-0.1-2,1
	c0,0,0,0.1-0.1,0.1c-1.2-1.1-2.5-1.6-4.1-1.6c0,0,0,0,0,0c-1.6,0-3,0.5-4.1,1.6c0,0-0.1-0.1-0.1-0.1c-0.5-1-0.9-1.2-2-1
	c-0.3,0.1-0.6,0-0.9-0.4c-0.3-0.3-0.6-0.6-0.8-0.8c-0.4-0.4-0.8-0.8-1.2-1.3c-2.3-2.3-4.5-4-6.8-5.3c-0.6-0.3-1.1-0.6-1.6-0.8
	c-0.2-0.1-0.4,0-0.5,0c0,0-0.1,0-0.1,0l-0.3,0.1l0.1,0.3c0,0,0,0.1,0,0.1c0,0.1,0.1,0.3,0.2,0.4c0.2,0.2,0.4,0.4,0.6,0.6l0.1,0.1
	c0.5,0.4,1,0.8,1.5,1.2c1.1,0.9,2.1,1.7,3.2,2.7c0.9,0.8,1.8,1.7,2.6,2.5c0.4,0.4,0.8,0.8,1.2,1.1l0.1,0.1c0.5,0.5,1,1,1.8,0.8
	c0,0,0.1,0,0.1,0c0.4,0.7,0.9,1,1.6,1l-0.3,0.5l0.7,0.3c-0.9,0.4-1.5,1.1-1.8,2.1c-1.4-0.2-2.1,0.8-2.6,1.7l-1.6-1.9
	c-0.9-1.1-1.9-2.2-3.4-2.4c-0.5-0.1-0.6-0.2-0.7-0.7c-0.3-1.2-1-2.1-2.1-2.6c-0.5-0.2-1-0.4-1.5-0.6c-0.3-0.1-0.7-0.2-1-0.4
	c-0.2-0.1-0.3-0.2-0.3-0.2c-0.3-0.9-0.9-1.3-1.5-1.7c-0.8-0.5-1.6-1.1-2.2-1.7c-0.1-0.1-0.2-0.3-0.2-0.5c0-0.3,0-0.7,0.1-1.1
	c0-0.1,0-0.3,0-0.4l0-0.2l-0.6-0.2l-0.7,1.8l-1.8,0.2l0.1,0.7l0.5,0c0.8,0.1,1.5,0.2,1.9,1c0.3,0.7,0.8,1.3,1.4,2.1
	c0.3,0.4,0.8,0.7,1.3,0.9c0.5,0.2,0.7,0.5,0.9,0.9c0.5,1.4,1.6,2.5,3,3.2c0.9,0.4,1.3,1,1.5,2c0.2,1.1,0.7,2.1,1.6,2.8
	c0.8,0.7,1.8,1.4,2.9,2.2c0.4,0.3,0.5,0.4,0.4,0.8c-0.2,0.8-0.1,1.6,0.3,2.4c-0.3-0.2-0.7-0.3-1-0.5c-3.8-1.7-7.7-3.8-12.4-6.6
	c-3.7-2.2-7.4-4.3-10.9-6.3c-2.6-1.5-4.9-2.4-7.2-2.8l-0.3-0.1c-1.7-0.3-3.4-0.7-5.2-0.4c-1.9,0.3-2.8,1.1-3,2.8
	c-0.3,1.8,0.2,3.4,0.8,5c1.2,3.3,3.3,6.1,6.2,8.5c0.7,0.6,1.6,1.2,2.8,1.3c0,0,0,0,0,0c0,1.8,0.9,3.2,2.8,4.3c1.7,0.9,3.3,1.9,5.2,3
	l0.1,0.1c1.1,0.7,2.2,1.3,3.5,0.7c0,0.1,0.1,0.1,0.1,0.2c0.2,0.3,0.4,0.5,0.6,0.7c1,1,2.3,1.5,4,1.5c0,0,0,0,0,0c3.7,0,7-1,9.8-3.1
	c1-0.7,2.2-1.3,3.5-1.6c-1.9,1.4-3.8,2.4-5.7,3.1c-0.6,0.2-1,0.5-1.1,0.9c-0.1,0.4,0,0.7,0.4,1.2c-1.8,0.7-2.5,2.3-3.2,4.1
	c-0.5,1.5-1.3,2.5-2.3,3.1c-0.5,0.3-0.7,0.9-0.4,1.5c0.1,0.2,0.2,0.4,0.4,0.7c0,0,0,0.1,0.1,0.1l-2.8,0.9l2,0.4
	c-0.3,0.4-0.7,0.7-1.1,1c-0.1,0.1-0.3,0.2-0.4,0.3l-0.6,0.5l1,0.1l-1.7,1.1l0.1,0l-1.5,0.3l1.1,0.3h0l-1.2,0.1l-0.1,0.7l2.1,0.4
	c-0.1,0.5-0.1,1.1,0.2,1.7l0.3,0.5l0.7-2.2l0.5,0.9l0.4-1.8l0.4,0.7l0.4-2.1l0.8,1v-2.1l0.2,0.4l0.2,0.2l0.5-0.3l-0.2-1.5
	c0.2,0.2,0.5,0.3,0.9,0.3c0.4-0.1,0.6-0.4,0.8-0.7c0.2-0.3,0.3-0.7,0.5-1.1c0.7-2.1,2-3.8,3.6-5c0.7-0.5,1.6-1.2,1.4-2.3
	c0.6,0.1,0.9-0.1,1.3-0.5c0.1-0.2,0.3-0.3,0.4-0.5c0.1-0.1,0.2-0.2,0.3-0.4c0.7-0.8,1.5-1.4,2.3-1.9c-1.3,1.2-2.4,2.6-3.4,4
	c-0.7,1-1.5,1.9-2.2,2.8l-0.4,0.5c-0.2,0.2-0.4,0.4-0.6,0.6c-0.2,0.2-0.4,0.3-0.6,0.5c-0.8,0.8-0.8,1.5-0.1,2.4
	c0.2,0.3,0.5,0.6,0.8,0.8c0,0,0,0,0,0c-1.4,0.3-2.2,1.2-2.5,2.7l0,0.2c0,0.2-0.1,0.5-0.1,0.8c0,0.3,0,0.5-0.1,0.8
	c-0.1,1.4-0.2,2.7-0.6,4c-0.3,0.7-0.4,1.2-0.2,1.6c0.2,0.3,0.5,0.5,1.1,0.7l-2.6,3.1l1-0.3l-1.9,1.6h0.8l-1.3,0.9l0.1,0.6l0.3-0.1
	c-0.2,0.1-0.5,0.2-0.8,0.4c-0.2,0.1-0.5,0.2-0.7,0.3l-0.9,0.5l0.6,0c-0.4,0-0.7,0-1.1,0l-1.1-0.1l0.8,0.6c0.8,0.6,1.6,0.8,2.6,0.5
	c-0.2,0.8-0.1,1.7,0.7,2.5l0.5,0.5l0-0.7c0-1,0-1.6,0-1.9l0.4,1.3l0.2-1.3c0.1-0.8,0.4-1.4,0.7-2l0.4,1.7l1-3.5l0.2,0.8l0.6-0.1
	l0.2-2.3l0.9,1.3l-0.1-1.8c0-0.6-0.1-1.2-0.1-1.8c0-0.2,0-0.2,0.2-0.3c0.4,0,0.9-0.3,1.1-0.6c0.7-0.8,1.2-1.8,1.5-2.9
	c0.4-2,0.5-3.9,0.3-5.8c0-0.2,0-0.4,0-0.6c0.2,0,0.3,0,0.5,0c0.6,0,0.9-0.1,1.2-0.3c0.2-0.3,0.4-0.6,0.3-1.2c0-0.1,0-0.3,0-0.4
	c0-0.2,0-0.4,0-0.6c0.1-1.4,0.7-2.7,1.8-4c-0.6,1.9-0.9,3.8-0.8,5.8c0.2,3.7,1.4,6.8,3.9,9.4c1.2,1.2,2.6,2.1,4,3
	c0.5,0.3,1,0.6,1.5,0.9c0.2,0.2,0.5,0.3,0.7,0.4c0.9,0.5,1.7,1.1,2.1,2.1c0,0.2,0.2,0.2,0.3,0.2l0.2,0.1l0.1-0.2c0,0,0-0.1,0.1-0.1
	c0.1-0.1,0.1-0.2,0.2-0.3c0.2-0.6,0.6-1,1.4-1.5c0.3-0.2,0.6-0.4,0.9-0.5c1.3-0.8,2.6-1.5,3.8-2.4c4.8-3.6,6.6-8.7,5.5-15.1
	c-0.1-0.6-0.3-1.2-0.5-1.8c0.9,1,1.6,2.1,1.7,3.5c0,0.4,0,0.7,0,1.1c0,0.2,0,0.4,0,0.6c0,0.8,0.3,1.2,1.2,1.3c0.3,0,0.5,0,0.8,0
	c0,0,0.1,0,0.1,0c0,0.2,0,0.3,0,0.5c-0.3,2.3-0.2,4.4,0.4,6.4c0.4,1.2,0.8,2.7,2.7,3.1l-0.1,2.6l0.1,0.2l0.4,0.2l0.3-0.5l0.2,2.3
	l0.7,0.1l0.2-0.8l1,3.4l0.4-1.7l1.1,2.8l0.2-1c0.2,0.6,0.1,1.2,0,1.9l-0.1,0.8l0.6-0.5c0.9-0.7,0.9-1.6,0.7-2.4
	c0.9,0.3,1.8,0.1,2.6-0.5l0.8-0.6l-1.2,0.1c-0.4,0-0.7,0.1-1.1,0l0.6-0.1l-0.7-0.5c-0.3-0.2-0.6-0.3-0.8-0.4
	c-0.2-0.1-0.3-0.2-0.5-0.2l0.2,0l0.1-0.6l-1.4-1h0.8l-1.8-1.6l1,0.4l-2.6-3.1c0.6-0.2,0.9-0.4,1.1-0.7c0.2-0.4,0.1-0.8-0.1-1.4
	c-0.4-1.3-0.7-2.6-0.7-4.2c0-0.8-0.2-1.6-0.6-2.7c-0.2-0.4-0.5-0.8-1.1-1.2c-0.3-0.2-0.7-0.3-1-0.4c0.1-0.1,0.2-0.1,0.2-0.2l0.1-0.1
	c0.2-0.1,0.3-0.3,0.4-0.4c0.4-0.5,0.6-1,0.6-1.4c0-0.4-0.3-0.8-0.7-1.2c-1.4-1.2-2.6-2.5-3.5-3.9c-0.7-1-1.5-2-2.3-3l-0.5-0.7
	c-0.2-0.2-0.3-0.4-0.5-0.6c0.9,0.6,1.7,1.2,2.3,2.1c0.3,0.5,0.8,1.2,1.7,1.1c-0.1,0.8,0.2,1.5,1,2c2,1.4,3.4,3.3,4.3,5.9
	c0.2,0.6,0.4,1.1,0.9,1.2c0.3,0.1,0.7-0.1,1-0.3l-0.2,1.5l0.6,0.2l0.3-0.6v2l0.8-0.9l0.4,2.2l0.4-0.8l0.5,1.8l0.4-0.9l0.6,1.8
	l0.6-0.1v-1.8c0.7,0.1,1.4-0.1,2.1-0.5l0.8-0.5l-2-0.2l0.1,0l-0.2-0.5l-0.4-0.1l0.2,0l-1.6-1.1l1.1-0.1l-0.7-0.4
	c-0.1-0.1-0.2-0.1-0.4-0.2c-0.5-0.3-0.9-0.6-1.2-1l2-0.4l-2.8-0.9c0,0,0-0.1,0.1-0.1c0.2-0.3,0.3-0.5,0.4-0.7
	c0.3-0.6,0.1-1.1-0.4-1.4c-1-0.6-1.7-1.6-2.3-3.1c-0.6-1.6-1.3-3.3-3.2-4.1c0.3-0.5,0.4-0.9,0.3-1.2c-0.1-0.4-0.6-0.7-1.3-0.9
	c0,0-0.1,0-0.1,0l-1.2-0.6c-1-0.5-2.1-1.1-3.1-1.6c-0.3-0.1-0.5-0.3-0.8-0.5l-0.2-0.2c0,0-0.1-0.1-0.1-0.1c1.3,0.3,2.3,0.7,3.2,1.4
	c2.6,1.9,5.6,3,8.9,3.2c2.2,0.2,4.6,0,6-2.4c1.6,0.4,1.8,0.3,3.2-0.5l2.5-1.5c1.2-0.7,2.4-1.4,3.6-2.1c1.1-0.6,1.8-1.5,2.1-2.6
	c0.1-0.4,0.1-0.7,0.2-1.1c0-0.1,0-0.1,0-0.2c0.2-0.1,0.4-0.1,0.6-0.2c0.6-0.2,1.1-0.4,1.5-0.7c2.6-2,4.4-4,5.6-6.4
	c0.9-1.7,1.9-3.8,2.1-6C236.5,176.5,236.2,175.4,235.6,174.7z M225.7,190.4c-2.5-0.2-4.9-0.4-7.4-0.5c-0.4,0-0.5-0.1-0.6-0.5
	c-0.1-1.2,0.3-2.3,0.7-3.4c0.5-1.4,1.5-2.3,2.5-3.2c0.1-0.1,0.3-0.2,0.3-0.3c0.7-1.1,1.7-0.8,2.8-0.6c-0.4,0.5-0.7,0.9-1,1.2
	c-0.1,0.2-0.3,0.3-0.4,0.5c-0.5,0.9-0.5,1.3,0.4,1.9c1.4,0.9,2.9,1.3,4.5,1.1c1.5-0.2,2.9-0.4,4.5-0.7c-0.9,0.9-1.7,1.8-2.5,2.6
	c-0.6,0.6-1.2,1.1-1.9,1.5C227.2,190.4,226.5,190.5,225.7,190.4z M187,221.5c3.3-0.1,6.3-1,8.7-3.7c-0.5,1.4-1.2,2.4-2,3.4
	c-1.1,1.4-2.5,2.4-4,3.3c-1.2,0.7-2.4,1.5-3.6,2.2c-0.4,0.2-0.7,0.6-1,0.9c-1.8-1.6-3.9-2.6-5.9-3.9c-2-1.4-3.5-3.2-4.5-5.4
	c0-0.1-0.1-0.2,0-0.3c0.9,1,1.9,1.7,3.1,2.3c1.7,0.8,3.5,1.1,5.4,1.2c1.1,0,1.5-0.4,1.4-1.5c0-0.7-0.1-1.5-0.2-2.2
	c-0.1-0.9-0.6-1.3-1.6-1.5c-1.3-0.2-2.5-0.4-3.8-0.7c-2.2-0.6-3.9-1.9-5.3-3.7c-0.1-0.1-0.1-0.3-0.1-0.5c0.1-2,0.7-3.9,1.6-5.8
	c0.5,0.4,1,0.8,1.5,1.2c1.8,1.4,3.9,2.2,6.2,2.3c1.1,0.1,1.6-0.3,2-1.3c0.1-0.3,0.2-0.7,0.4-1.1c0.1,0.4,0.2,0.8,0.3,1.1
	c0.4,1,0.9,1.4,2,1.3c2.6-0.2,4.8-1.2,6.7-2.9c0.3-0.2,0.5-0.5,0.8-0.7c0.8,1.8,1.3,3.5,1.6,5.4c0.1,0.4,0,0.8-0.3,1.1
	c-1.8,2.3-4.2,3.5-7,3.9c-0.7,0.1-1.4,0.2-2.1,0.3c-0.8,0.1-1.2,0.6-1.4,1.3c-0.1,0.8-0.2,1.7-0.3,2.5
	C185.5,221.1,185.9,221.5,187,221.5z M149.3,182.2c-0.2-0.2-0.4-0.3-0.5-0.5c-1.1-2.2-3.2-3.3-5-4.7c-0.9-0.7-1.8-1.3-2.7-2.1
	c0.6,0.1,1.2,0.2,1.8,0.4c2.3,0.6,4.3,1.7,6.4,2.7c1.3,0.6,2.5,1.4,2.9,2.9c0.2,0.6,0.6,1.2,1,1.7c0.3,0.5,0.8,0.7,1.4,0.6
	c0.8-0.2,1.5,0.1,2,0.7c1.4,1.6,2.8,3.3,4.2,4.9C156.5,187.5,152.5,185.5,149.3,182.2z M166,192.6c-4.3-1.2-8.5-2.5-13-2.7
	c-0.1-0.8,0-1.6-0.2-2.4c-0.2-0.7-0.5-1.4-0.8-2.2c0.7,0.5,1.3,0.9,2,1.3c1.4,0.7,2.8,1.3,4.2,1.9C161,189.6,163.5,191.1,166,192.6z
	 M147,180.1c0.3,0.2,0.5,0.6,0.8,0.9c-0.6,0.1-1.1,0.1-1.6,0.2c-0.8,0.2-1,0.6-0.5,1.3c0.3,0.5,0.7,0.9,1.1,1.4
	c0.4,0.6,0.4,0.8-0.2,1.2c-1.2,0.7-2.5,1.1-3.8,0.9c-1.6-0.2-3.3-0.5-4.9-0.9c-0.2,0-0.5-0.2-0.6-0.4c-1.2-2-2.2-4.1-2.5-6.4
	c-0.1-0.7,0-1.4,0.1-2c0.2-1,1-1.6,2.1-1.7c0.8-0.1,1.5,0,2.3,0c0.1,0,0.3,0.1,0.4,0.1C142.1,176.5,144.5,178.3,147,180.1z
	 M142.3,186.6c1.6,0.2,3.1-0.2,4.5-1c1-0.6,1.1-1.2,0.3-2.1c-0.4-0.4-0.7-0.9-1.1-1.3c0,0,0-0.1,0-0.2c0.9-0.5,1.9-0.3,2.5,0.4
	c0.4,0.4,0.8,0.8,1.3,1.2c1.7,1.6,2.5,3.5,2.5,5.8c0,0.4-0.2,0.5-0.6,0.6c-2.4,0.1-4.9,0.3-7.3,0.5c-0.9,0.1-1.8-0.1-2.5-0.7
	c-1.3-1.2-2.5-2.4-3.8-3.7c-0.1-0.1-0.1-0.2-0.1-0.2C139.5,186.1,140.9,186.4,142.3,186.6z M155,190.7c2.5,0.3,4.9,0.9,7.3,1.6
	c3.5,0.9,7,2.1,10.6,2.7c0.3,0,0.5,0.1,0.8,0.3c-0.5,0-1,0-1.5,0c-3,0-6,0-9-0.1c-0.2,0-0.4-0.1-0.5-0.3c-0.4-0.8-1.1-1.2-2-1.1
	c-1.1,0.1-2.2-0.1-3.1-0.8c-0.8-0.5-1.6-0.3-2.3,0.1c-2.5,1.4-5.3,1.7-8.1,1.7c-0.5,0-1.1-0.5-1.6-0.9c-0.7-0.6-1.1-1.8-1-2.8
	C148.1,190.6,151.6,190.2,155,190.7z M152.4,194.8c1.1-0.3,2.1-0.8,3.2-1.2c0.6-0.3,1.2-0.4,1.8,0c1,0.7,2.1,0.7,3.3,0.7
	c0.8,0,1.2,0.2,1.4,1c-1,0.3-2.1,0.5-3.1,0.8c-1.2,0.3-2.2,1-3.1,1.7c-1.4,1.1-1.8,1.2-3.3,0.3c-1.5-0.9-2.9-1.8-4.3-2.6
	C149.6,195.3,151,195.1,152.4,194.8z M161.3,196.1c2.9-0.7,5.8-0.4,8.8-0.4c1.6,0,3.2,0,4.8,0.1c-0.3,0.1-0.5,0.2-0.8,0.2
	c-2,0.3-3.7,1.2-5.4,2.3c-2.6,1.7-5.6,2.5-8.7,2.5c-0.8,0-1.6-0.3-2.3-0.5c-0.9-0.3-1.4-0.9-1.7-1.7
	C157.4,197.1,159.3,196.5,161.3,196.1z M169.4,193.6c-0.9-0.2-1.7-0.8-2.6-1.3c-1.5-0.8-3-1.7-4.5-2.6c-0.2-0.1-0.3-0.3-0.5-0.5
	c-1.6-2-3.2-3.9-4.8-5.9c-0.6-0.7-1.4-1-2.4-0.8c-0.4,0.1-0.8,0-1-0.4c-0.5-0.8-0.9-1.6-1.4-2.5c0.1-0.1,0.1-0.1,0.2-0.2
	c2.1,1.2,4.1,2.5,6.2,3.8c4.3,2.7,8.7,5.2,13.4,7.3c1.2,0.5,2.3,1.2,3.4,1.8c0.7,0.4,1.2,1,1.5,1.8c0.2,0.6,0.1,0.8-0.5,0.7
	C174.1,194.5,171.7,194.1,169.4,193.6z M181.8,182.8c3.6-0.8,7-0.3,10.2,1.2c1.6,0.8,2.9,2,3.8,3.6c0.6,1,0.1,2-0.4,2.9
	c-0.1,0.2-0.3,0.3-0.4,0.5c-0.3-1.3-1.1-2-2.3-1.9c-1.1,0.1-2.3,0.2-3.4,0.5c-2.9,0.8-5.8,0.7-8.6-0.1c-1-0.3-2.1-0.4-3.2-0.4
	c-1.1,0-2,0.8-2.3,1.9c-0.3-0.5-0.6-1-0.8-1.5c-0.3-0.8-0.1-1.6,0.4-2.3C176.4,184.6,178.9,183.5,181.8,182.8z M217.3,189.9
	c-4.6,0.2-8.8,1.5-13.1,2.7c0.5-0.3,0.9-0.5,1.4-0.8c3-1.8,6.2-3.1,9.4-4.5c1-0.4,1.8-1.1,2.7-1.6c0.1-0.1,0.3-0.2,0.4-0.3
	C217.4,186.8,217,188.3,217.3,189.9z M211.2,188.2c-0.6,0.2-1.2,0.5-1.9,0.6c1-1.2,1.9-2.4,2.9-3.6c0.4-0.5,0.9-1,1.4-1.5
	c0.5-0.5,1.1-0.8,1.8-0.6c0.7,0.2,1.3-0.1,1.6-0.7c0.5-0.9,1-1.9,1.4-2.9c0.1-0.2,0.2-0.5,0.4-0.6c2.7-1.5,5.5-3,8.5-3.8
	c0.5-0.1,1.1-0.2,1.7-0.3c0,0,0,0.1,0.1,0.1c-1.3,0.9-2.6,1.8-3.9,2.8c-1.1,0.8-2.3,1.6-3,2.7c-1,1.4-2.2,2.5-3.4,3.6
	C216.6,186,214,187.2,211.2,188.2z M216.4,182.3c-0.1,0.2-0.5,0.3-0.8,0.2c-1-0.2-1.8,0.1-2.4,0.8c-1.6,1.9-3.1,3.8-4.7,5.7
	c-0.3,0.4-0.7,0.7-1.1,1c-1.8,1.1-3.6,2-5.3,3.1c-1,0.6-2.2,0.7-3.3,1c-1.6,0.3-3.3,0.6-5,0.8c-0.2,0-0.5-0.1-0.7-0.1
	c0-0.3,0-0.6,0.1-0.8c0.5-1.1,1.5-1.7,2.5-2.2c3.4-1.7,6.8-3.3,10.1-5.1c3-1.7,5.9-3.6,8.9-5.3c1-0.6,2-1.1,2.9-1.7
	c0.1,0,0.1,0.1,0.2,0.1C217.4,180.6,216.9,181.5,216.4,182.3z M185.1,197.2c1.3,0.7,2.7,1.2,3.9,2.4c-1.7,0.5-3.2,1-3.9,2.8
	c-0.7-1.8-2.2-2.4-3.9-2.8C182.3,198.4,183.8,197.9,185.1,197.2z M181.5,194.1c0.6-1.1,1.3-1.8,2.2-2.4c1.8-1.2,1.1-1.2,2.8,0
	c0.7,0.5,1.3,1.2,1.9,1.8c0.3,0.3,0.2,0.6-0.2,0.6c-1.2,0.3-2.2,1-3.1,1.9C184.1,195.2,183,194.4,181.5,194.1z M195.4,195.7
	c3.4,0,6.8-0.2,10.1-0.1c2.5,0.1,5.1,0.5,7.3,1.8c0.5,0.3,1,0.7,1.5,1.1c-0.5,1.4-1.7,2-3,2.2c-1.9,0.4-3.7,0-5.6-0.5
	c-1.9-0.5-3.5-1.3-5.1-2.4c-1.2-0.9-2.5-1.4-4-1.6C196.2,196.1,195.8,195.9,195.4,195.7C195.3,195.8,195.4,195.8,195.4,195.7z
	 M208.4,195.3c-0.1,0-0.1,0-0.2-0.1c0.2-0.6,0.5-0.9,1.1-1c0.3,0,0.6,0,0.9,0c1,0.1,1.9-0.2,2.7-0.7c0.5-0.4,1.1-0.4,1.7-0.1
	c2.3,1.3,4.8,1.8,7.4,1.9c0.1,0,0.1,0,0.3,0.1c-1.7,1-3.3,2-5,3c-1,0.6-1.6,0.5-2.5-0.3C212.9,196.4,210.7,195.8,208.4,195.3z
	 M220.9,194.7c-2.1-0.2-4.1-0.6-5.9-1.7c-0.9-0.5-1.7-0.5-2.5,0.1c-0.7,0.5-1.5,0.7-2.3,0.6c-1.1-0.1-2,0.1-2.5,1.3
	c0,0.1-0.2,0.2-0.3,0.2c-3.4,0-6.9,0-10.3,0.1c-0.1,0-0.3,0-0.4,0c4.3-0.7,8.3-2.1,12.5-3.3c4.5-1.3,9.1-1.7,13.7-1.2
	c1,0.1,1.9,0.2,2.9,0.3c0.2,1.6-0.9,3.5-2.3,3.8C222.5,194.9,221.7,194.8,220.9,194.7z M231.8,185.3c-1.5,0.2-2.9,0.6-4.4,0.7
	c-1.4,0.1-2.7-0.3-3.9-1c-0.4-0.3-0.5-0.6-0.2-1c0.4-0.5,0.8-0.9,1.1-1.4c0.5-0.7,0.3-1.1-0.5-1.3c-0.2-0.1-0.5-0.1-0.8-0.1
	c-0.2,0-0.5,0-0.9,0c0.8-1.2,1.9-1.9,2.9-2.7c1.6-1.2,3.3-2.4,5-3.6c0.3-0.2,0.6-0.3,0.9-0.3c0.4-0.1,0.9-0.1,1.3,0
	c2.5,0,3.1,1.2,3,3.5c-0.1,1.5-0.6,2.9-1.3,4.3c-0.3,0.6-0.7,1.2-1,1.9C233,184.8,232.5,185.2,231.8,185.3z"/>
</svg>
