<?xml version="1.0" encoding="utf-8"?>
<!-- Generator: Adobe Illustrator 21.0.0, SVG Export Plug-In . SVG Version: 6.00 Build 0)  -->
<svg version="1.1" id="Layer_1" xmlns="http://www.w3.org/2000/svg" xmlns:xlink="http://www.w3.org/1999/xlink" x="0px" y="0px"
	 viewBox="0 0 454.3 288" style="enable-background:new 0 0 454.3 288;" xml:space="preserve">
<style type="text/css">
	.st0{fill:none;stroke:#005E9F;stroke-width:2.7423;stroke-linecap:round;stroke-miterlimit:10;}
	.st1{fill:none;stroke:#005E9F;stroke-width:2.7423;stroke-linecap:round;stroke-linejoin:round;stroke-miterlimit:10;}
	.st2{fill:none;stroke:#005E9F;stroke-width:2.5862;stroke-linecap:round;stroke-miterlimit:10;}
	.st3{fill:none;stroke:#005E9F;stroke-width:2.3702;stroke-linecap:round;stroke-miterlimit:10;}
</style>
<line class="st0" x1="324.2" y1="117.4" x2="411" y2="117.4"/>
<line class="st0" x1="325.6" y1="169.2" x2="411" y2="169.2"/>
<polyline class="st1" points="270.7,63.4 301.7,32.4 337.8,68.4 322.3,84 "/>
<polyline class="st1" points="271,223.9 301.7,254.6 337.8,218.6 322.3,203.1 "/>
<polyline class="st1" points="286.7,208 301.7,222.9 381.1,143.5 381.1,143.5 301.7,64.1 286.7,79.1 "/>
<line class="st0" x1="130" y1="117.4" x2="43.3" y2="117.4"/>
<line class="st0" x1="128.6" y1="169.2" x2="43.3" y2="169.2"/>
<polyline class="st1" points="183.5,63.4 152.5,32.4 116.5,68.4 132,84 "/>
<polyline class="st1" points="183.3,223.9 152.5,254.6 116.5,218.6 132,203.1 "/>
<polyline class="st1" points="167.5,208 152.5,222.9 73.1,143.5 73.1,143.5 152.5,64.1 167.5,79.1 "/>
<rect x="140" y="56.8" transform="matrix(0.7071 0.7071 -0.7071 0.7071 168.357 -118.4498)" class="st2" width="174.4" height="174.4"/>
<rect x="147.2" y="64.1" transform="matrix(0.7071 0.7071 -0.7071 0.7071 168.357 -118.4498)" class="st3" width="159.8" height="159.8"/>
</svg>
