<svg data-name="Layer 1" xmlns="http://www.w3.org/2000/svg" viewBox="0 0 328.8 56.3"><defs><style>.cls-1{fill:#005ea3;}.cls-2{fill:#fff;}</style></defs><path class="cls-1" d="M326.24,40.42H252.83a1,1,0,0,1-1-1v-23a1,1,0,0,1,1-1h76L316,27.87,328.8,40.42h-2.56Zm-12.47-13.3,9.91-9.71h-69.8V38.33h69.8L313,27.87"/><path class="cls-1" d="M0,40.42,12.81,27.87,0,15.32H76a1,1,0,0,1,1,1v23a1,1,0,0,1-1,1H2.56M15,28.61,5.13,38.33h69.8V17.41H5.13L15.79,27.87"/><polygon class="cls-2" points="313.84 7.9 15.3 7.9 33.06 27.87 15.3 47.83 313.84 47.83 296.08 27.87 313.84 7.9"/><path class="cls-1" d="M313.84,6.86h2.33l-18.7,21,18.7,21H13l18.7-21L13,6.86m4.67,39.93H311.51L295.29,28.57l-.62-.7L311.51,9H17.63L34.47,27.87l-.62.7Z"/><path class="cls-1" d="M282.53,33.1a5.23,5.23,0,1,1,5.23-5.23A5.24,5.24,0,0,1,282.53,33.1Zm0-8.37a3.14,3.14,0,1,0,3.14,3.14A3.14,3.14,0,0,0,282.53,24.73Z"/><rect class="cls-1" x="42.42" width="244.29" height="2.28"/><rect class="cls-1" x="42.42" y="54.02" width="244.29" height="2.28"/><path class="cls-1" d="M46.61,33.1a5.23,5.23,0,1,1,5.23-5.23A5.24,5.24,0,0,1,46.61,33.1Zm0-8.37a3.14,3.14,0,1,0,3.14,3.14A3.14,3.14,0,0,0,46.61,24.73Z"/></svg>
