<?xml version="1.0" standalone="no"?>
<!DOCTYPE svg PUBLIC "-//W3C//DTD SVG 20010904//EN"
 "http://www.w3.org/TR/2001/REC-SVG-20010904/DTD/svg10.dtd">
<svg version="1.0" xmlns="http://www.w3.org/2000/svg"
 width="16.000000pt" height="16.000000pt" viewBox="0 0 16.000000 16.000000"
 preserveAspectRatio="xMidYMid meet">
<metadata>
Created by potrace 1.11, written by Peter Selinger 2001-2013
</metadata>
<g transform="translate(0.000000,16.000000) scale(0.006250,-0.006250)"
fill="#000000" stroke="none">
<path d="M1236 2453 c-21 -49 -87 -184 -147 -301 -126 -245 -169 -360 -169
-453 0 -90 10 -120 110 -329 117 -244 170 -409 170 -526 0 -29 -3 -34 -24 -34
-22 0 -23 4 -29 84 -8 101 -47 239 -90 320 -89 168 -278 266 -517 268 -149 1
-260 -64 -320 -187 -22 -44 -25 -63 -25 -160 0 -105 2 -114 33 -178 19 -39 57
-92 90 -125 l55 -57 17 65 c28 112 52 144 135 182 66 30 223 32 302 5 64 -22
140 -88 164 -142 28 -60 25 -69 -25 -83 -54 -14 -106 -69 -106 -112 0 -17 2
-30 4 -30 2 0 28 11 58 25 29 14 62 25 72 25 17 0 18 -6 13 -51 -7 -55 -47
-152 -77 -184 -19 -20 -19 -21 4 -85 13 -35 28 -66 33 -67 18 -6 75 68 110
144 19 40 42 111 51 158 16 83 17 85 44 85 27 0 28 -2 28 -52 0 -50 -9 -93
-44 -218 -14 -49 -14 -60 -1 -114 20 -76 114 -316 125 -316 15 0 110 243 130
330 11 51 10 61 -14 135 -15 44 -29 115 -33 158 l-6 77 31 0 c29 0 30 -2 37
-53 17 -124 75 -255 143 -320 l29 -28 25 68 26 68 -31 44 c-33 48 -67 146 -67
193 0 28 2 30 28 24 15 -4 49 -18 76 -32 l49 -24 -6 41 c-7 52 -38 85 -99 107
-53 18 -55 25 -32 80 57 138 277 209 454 147 85 -30 124 -77 151 -185 l16 -65
57 58 c36 36 70 84 89 125 30 63 32 74 32 177 0 95 -3 117 -23 157 -31 62 -89
121 -154 155 -50 26 -61 28 -173 28 -192 -1 -307 -41 -421 -147 -101 -95 -166
-252 -181 -440 -6 -73 -7 -78 -29 -78 -21 0 -24 5 -24 35 0 112 59 291 175
535 93 195 105 230 105 313 0 102 -28 181 -145 412 -62 121 -134 268 -160 328
-27 59 -51 107 -55 107 -4 0 -24 -39 -44 -87z"/>
</g>
</svg>
