<svg xmlns="http://www.w3.org/2000/svg" width="454" height="60" viewBox="0 0 454 60"><style>path { fill: #ddd; }</style><title>Artboard 1</title><path d="M453,31H256.27a1,1,0,0,1,0-2H453a1,1,0,0,1,0,2Z"/><path d="M197.73,31H1a1,1,0,0,1,0-2H197.73a1,1,0,0,1,0,2Z"/><path d="M227.43,60,196.78,30,227.43,0l30.65,30ZM199.61,30l27.82,27.23L255.25,30,227.43,2.77Z"/><path d="M255.88,49.79,235.66,30l20.22-19.79L276.1,30ZM238.16,30l17.72,17.34L273.6,30,255.88,12.66Z"/><path d="M199.47,49.79,179.25,30l20.22-19.79L219.69,30ZM181.75,30l17.72,17.34L217.19,30,199.47,12.66Z"/></svg>
